<svg width="512" height="512" viewBox="0 0 512 512" fill="none" xmlns="http://www.w3.org/2000/svg">
<rect width="512" height="512" fill="#31111D"/>
<path d="M77.6651 267.682H95.8696L115.097 314.591H115.915L135.142 267.682H153.347V337.5H139.029V292.057H138.449L120.381 337.159H110.631L92.5628 291.886H91.9832V337.5H77.6651V267.682ZM229.668 302.591C229.668 310.205 228.225 316.682 225.338 322.023C222.475 327.364 218.566 331.443 213.611 334.261C208.679 337.057 203.134 338.455 196.975 338.455C190.77 338.455 185.202 337.045 180.27 334.227C175.338 331.409 171.441 327.33 168.577 321.989C165.713 316.648 164.282 310.182 164.282 302.591C164.282 294.977 165.713 288.5 168.577 283.159C171.441 277.818 175.338 273.75 180.27 270.955C185.202 268.136 190.77 266.727 196.975 266.727C203.134 266.727 208.679 268.136 213.611 270.955C218.566 273.75 222.475 277.818 225.338 283.159C228.225 288.5 229.668 294.977 229.668 302.591ZM214.702 302.591C214.702 297.659 213.963 293.5 212.486 290.114C211.032 286.727 208.975 284.159 206.316 282.409C203.657 280.659 200.543 279.784 196.975 279.784C193.407 279.784 190.293 280.659 187.634 282.409C184.975 284.159 182.907 286.727 181.429 290.114C179.975 293.5 179.247 297.659 179.247 302.591C179.247 307.523 179.975 311.682 181.429 315.068C182.907 318.455 184.975 321.023 187.634 322.773C190.293 324.523 193.407 325.398 196.975 325.398C200.543 325.398 203.657 324.523 206.316 322.773C208.975 321.023 211.032 318.455 212.486 315.068C213.963 311.682 214.702 307.523 214.702 302.591ZM249.279 267.682L266.154 320.727H266.801L283.711 267.682H300.074L276.006 337.5H256.983L232.881 267.682H249.279ZM323.239 267.682V337.5H308.478V267.682H323.239ZM335.384 337.5V267.682H382.429V279.852H350.145V296.489H380.009V308.659H350.145V325.33H382.566V337.5H335.384ZM432.04 287.761C431.767 285.011 430.597 282.875 428.529 281.352C426.461 279.83 423.654 279.068 420.108 279.068C417.699 279.068 415.665 279.409 414.006 280.091C412.347 280.75 411.074 281.67 410.188 282.852C409.324 284.034 408.892 285.375 408.892 286.875C408.847 288.125 409.108 289.216 409.676 290.148C410.267 291.08 411.074 291.886 412.097 292.568C413.12 293.227 414.301 293.807 415.642 294.307C416.983 294.784 418.415 295.193 419.938 295.534L426.211 297.034C429.256 297.716 432.051 298.625 434.597 299.761C437.142 300.898 439.347 302.295 441.211 303.955C443.074 305.614 444.517 307.568 445.54 309.818C446.586 312.068 447.12 314.648 447.142 317.557C447.12 321.83 446.029 325.534 443.87 328.67C441.733 331.784 438.642 334.205 434.597 335.932C430.574 337.636 425.722 338.489 420.04 338.489C414.404 338.489 409.495 337.625 405.313 335.898C401.154 334.17 397.904 331.614 395.563 328.227C393.245 324.818 392.029 320.602 391.915 315.58H406.199C406.358 317.92 407.029 319.875 408.211 321.443C409.415 322.989 411.017 324.159 413.017 324.955C415.04 325.727 417.324 326.114 419.87 326.114C422.37 326.114 424.54 325.75 426.381 325.023C428.245 324.295 429.688 323.284 430.711 321.989C431.733 320.693 432.245 319.205 432.245 317.523C432.245 315.955 431.779 314.636 430.847 313.568C429.938 312.5 428.597 311.591 426.824 310.841C425.074 310.091 422.926 309.409 420.381 308.795L412.779 306.886C406.892 305.455 402.245 303.216 398.836 300.17C395.426 297.125 393.733 293.023 393.756 287.864C393.733 283.636 394.858 279.943 397.131 276.784C399.426 273.625 402.574 271.159 406.574 269.386C410.574 267.614 415.12 266.727 420.211 266.727C425.392 266.727 429.915 267.614 433.779 269.386C437.665 271.159 440.688 273.625 442.847 276.784C445.006 279.943 446.12 283.602 446.188 287.761H432.04Z" fill="white"/>
<path d="M175.167 174.682V244.5H160.405V174.682H175.167ZM245.709 174.682V244.5H232.959L202.584 200.557H202.073V244.5H187.311V174.682H200.266L230.402 218.591H231.016V174.682H245.709ZM295.78 194.761C295.507 192.011 294.337 189.875 292.269 188.352C290.201 186.83 287.394 186.068 283.848 186.068C281.439 186.068 279.405 186.409 277.746 187.091C276.087 187.75 274.814 188.67 273.928 189.852C273.064 191.034 272.632 192.375 272.632 193.875C272.587 195.125 272.848 196.216 273.417 197.148C274.007 198.08 274.814 198.886 275.837 199.568C276.86 200.227 278.042 200.807 279.382 201.307C280.723 201.784 282.155 202.193 283.678 202.534L289.951 204.034C292.996 204.716 295.792 205.625 298.337 206.761C300.882 207.898 303.087 209.295 304.951 210.955C306.814 212.614 308.257 214.568 309.28 216.818C310.326 219.068 310.86 221.648 310.882 224.557C310.86 228.83 309.769 232.534 307.61 235.67C305.473 238.784 302.382 241.205 298.337 242.932C294.314 244.636 289.462 245.489 283.78 245.489C278.144 245.489 273.235 244.625 269.053 242.898C264.894 241.17 261.644 238.614 259.303 235.227C256.985 231.818 255.769 227.602 255.655 222.58H269.939C270.098 224.92 270.769 226.875 271.951 228.443C273.155 229.989 274.757 231.159 276.757 231.955C278.78 232.727 281.064 233.114 283.61 233.114C286.11 233.114 288.28 232.75 290.121 232.023C291.985 231.295 293.428 230.284 294.451 228.989C295.473 227.693 295.985 226.205 295.985 224.523C295.985 222.955 295.519 221.636 294.587 220.568C293.678 219.5 292.337 218.591 290.564 217.841C288.814 217.091 286.667 216.409 284.121 215.795L276.519 213.886C270.632 212.455 265.985 210.216 262.576 207.17C259.167 204.125 257.473 200.023 257.496 194.864C257.473 190.636 258.598 186.943 260.871 183.784C263.167 180.625 266.314 178.159 270.314 176.386C274.314 174.614 278.86 173.727 283.951 173.727C289.132 173.727 293.655 174.614 297.519 176.386C301.405 178.159 304.428 180.625 306.587 183.784C308.746 186.943 309.86 190.602 309.928 194.761H295.78ZM318.152 186.852V174.682H375.493V186.852H354.118V244.5H339.527V186.852H318.152ZM388.439 244.5H372.621L396.723 174.682H415.746L439.814 244.5H423.996L406.507 190.636H405.962L388.439 244.5ZM387.451 217.057H424.814V228.58H387.451V217.057Z" fill="white"/>
<mask id="mask0_17_2" style="mask-type:alpha" maskUnits="userSpaceOnUse" x="60" y="161" width="97" height="97">
<rect x="60.7" y="161.5" width="96" height="96" fill="#D9D9D9"/>
</mask>
<g mask="url(#mask0_17_2)">
<path d="M76.7 245.5V173.5H84.7V181.5H92.7V173.5H124.7V181.5H132.7V173.5H140.7V245.5H132.7V237.5H124.7V245.5H92.7V237.5H84.7V245.5H76.7ZM84.7 229.5H92.7V221.5H84.7V229.5ZM84.7 213.5H92.7V205.5H84.7V213.5ZM84.7 197.5H92.7V189.5H84.7V197.5ZM124.7 229.5H132.7V221.5H124.7V229.5ZM124.7 213.5H132.7V205.5H124.7V213.5ZM124.7 197.5H132.7V189.5H124.7V197.5ZM100.7 237.5H116.7V181.5H100.7V237.5Z" fill="white"/>
</g>
</svg>
